<svg xmlns="http://www.w3.org/2000/svg" viewBox="0 0 48 48" role="img" aria-labelledby="title desc">
  <title id="title">LoopsVault mark</title>
  <desc id="desc">Two opposing rounded loops protect a blue square.</desc>
  <path d="M24 5h9c5.523 0 10 4.477 10 10v18c0 5.523-4.477 10-10 10H15C9.477 43 5 38.523 5 33V15C5 9.477 9.477 5 15 5h3" fill="none" stroke="currentColor" stroke-width="4" stroke-linecap="square"/>
  <path d="M29 14h2.5a3.5 3.5 0 0 1 3.5 3.5v13a3.5 3.5 0 0 1-3.5 3.5H16.5a3.5 3.5 0 0 1-3.5-3.5v-13a3.5 3.5 0 0 1 3.5-3.5H19" fill="none" stroke="currentColor" stroke-width="3" stroke-linecap="square"/>
  <rect x="21" y="21" width="6" height="6" rx="1" fill="#124EC5"/>
</svg>
